<?xml version="1.0" encoding="UTF-8"?>
<svg id="FlightPath" xmlns="http://www.w3.org/2000/svg" viewBox="0 0 800 400">
  <path d="M41.36,0c1.74,18.21,7.05,47.07,25.1,76.29,25.56,41.39,61.99,59.71,91.63,74.14,55.49,27.01,107.33,30.18,211.03,36.5,72.18,4.4,113.28,7.96,146.77-9.51,34.98-18.25,57.2-43.8,52.47-69.58-8.37-45.63-75.41-53.31-109.51-57.79-29.92-3.94-110.94-6.06-144.87,43.73-24.5,35.96-14.24,91.51,11.79,125.48,40.35,52.66,120.05,55.32,194.3,57.79,78.24,2.61,113.82-12.33,172.62,4.56,16.07,4.62,55.75,16.49,92.4,50.19,6.53,6.01,11.56,11.41,14.92,15.21" fill="none" stroke="#231f20" stroke-miterlimit="10"/>
</svg>